<?xml version="1.0" encoding="UTF-8"?>
<!DOCTYPE svg PUBLIC "-//W3C//DTD SVG 1.1//EN" "http://www.w3.org/Graphics/SVG/1.1/DTD/svg11.dtd">
<svg xmlns="http://www.w3.org/2000/svg" xmlns:xlink="http://www.w3.org/1999/xlink" version="1.1" width="97px" height="101px" viewBox="-0.5 -0.5 97 101"><defs/><g><rect x="0" y="16" width="40" height="40" fill="none" stroke="none" pointer-events="all"/><path d="M 20 34.81 L 1.57 25.4 L 20 16 L 38.36 25.4 Z M 20.98 56 L 20.98 36.43 L 40 26.73 L 40 46.3 Z M 19.02 55.99 L 0 46.3 L 0 26.84 L 19.02 36.55 Z" fill="rgb(255, 255, 255)" stroke="#4d4d4d" stroke-miterlimit="10" pointer-events="all"/><rect x="28" y="0" width="40" height="40" fill="none" stroke="none" pointer-events="all"/><path d="M 48 18.81 L 29.57 9.4 L 48 0 L 66.36 9.4 Z M 48.98 40 L 48.98 20.43 L 68 10.73 L 68 30.3 Z M 47.02 39.99 L 28 30.3 L 28 10.84 L 47.02 20.55 Z" fill="#ffcc99" stroke="#4d4d4d" stroke-miterlimit="10" pointer-events="all"/><rect x="28" y="60" width="40" height="40" fill="none" stroke="none" pointer-events="all"/><path d="M 48 78.81 L 29.57 69.4 L 48 60 L 66.36 69.4 Z M 48.98 100 L 48.98 80.43 L 68 70.73 L 68 90.3 Z M 47.02 99.99 L 28 90.3 L 28 70.84 L 47.02 80.55 Z" fill="#cdeb8b" stroke="#4d4d4d" stroke-miterlimit="10" pointer-events="all"/><rect x="0" y="44" width="40" height="40" fill="none" stroke="none" pointer-events="all"/><path d="M 20 62.81 L 1.57 53.4 L 20 44 L 38.36 53.4 Z M 20.98 84 L 20.98 64.43 L 40 54.73 L 40 74.3 Z M 19.02 83.99 L 0 74.3 L 0 54.84 L 19.02 64.55 Z" fill="#ffcccc" stroke="#4d4d4d" stroke-miterlimit="10" pointer-events="all"/><rect x="56" y="16" width="40" height="40" fill="none" stroke="none" pointer-events="all"/><path d="M 76 34.81 L 57.57 25.4 L 76 16 L 94.36 25.4 Z M 76.98 56 L 76.98 36.43 L 96 26.73 L 96 46.3 Z M 75.02 55.99 L 56 46.3 L 56 26.84 L 75.02 36.55 Z" fill="#cce5ff" stroke="#4d4d4d" stroke-miterlimit="10" pointer-events="all"/><rect x="56" y="44" width="40" height="40" fill="none" stroke="none" pointer-events="all"/><path d="M 76 62.81 L 57.57 53.4 L 76 44 L 94.36 53.4 Z M 76.98 84 L 76.98 64.43 L 96 54.73 L 96 74.3 Z M 75.02 83.99 L 56 74.3 L 56 54.84 L 75.02 64.55 Z" fill="#ffff88" stroke="#4d4d4d" stroke-miterlimit="10" pointer-events="all"/></g></svg>